<svg width="225" height="225" xmlns="http://www.w3.org/2000/svg" xmlns:svg="http://www.w3.org/2000/svg" preserveAspectRatio="xMidYMid meet" version="1.0">
 <g class="layer">
  <title>Layer 1</title>
  <g fill="#e30707" id="svg_1" transform="matrix(0.250246 0 0 -0.311481 -171.503 -239.213)">
   <path d="m849,-809c-78,-25 -119,-84 -119,-170c0,-67 24,-111 80,-149l35,-24l3,31c3,24 -4,38 -27,62c-26,25 -31,38 -31,78c0,27 7,56 16,70c32,46 66,51 319,51c253,0 287,-5 319,-51c10,-15 16,-44 16,-76l0,-53l36,0l37,0l-7,61c-7,73 -33,119 -84,151c-36,22 -45,23 -302,25c-146,1 -277,-2 -291,-6z" id="svg_2"/>
   <path d="m897,-968c-14,-15 -17,-42 -17,-160c0,-134 1,-142 22,-156c19,-13 58,-16 224,-16l203,0l20,26c31,40 28,64 -9,64c-20,0 -30,-5 -30,-15c0,-13 -27,-15 -185,-15l-186,0l3,118l3,117l178,3c172,2 179,2 184,-18c7,-25 63,-29 63,-4c0,19 -19,56 -34,66c-6,4 -104,8 -217,8c-187,0 -207,-2 -222,-18z" id="svg_3"/>
   <path d="m960,-1125l0,-25l195,0c212,0 259,-9 289,-55c20,-31 20,-104 0,-133c-34,-48 -56,-52 -319,-52c-271,0 -291,4 -320,60c-8,16 -15,49 -15,75c0,43 -1,45 -30,45c-30,0 -30,0 -30,-57c0,-75 33,-133 93,-162c41,-20 60,-21 303,-21c233,0 263,2 301,19c107,49 130,206 41,288c-41,39 -71,43 -294,43l-214,0l0,-25z" id="svg_4"/>
  </g>
 </g>
</svg>